<?xml version="1.0" encoding="UTF-8"?>
<svg xmlns="http://www.w3.org/2000/svg" xmlns:xlink="http://www.w3.org/1999/xlink" viewBox="0 0 50 50" width="50px" height="50px">
<g id="surface18188096">
<path style=" stroke:none;fill-rule:nonzero;fill:rgb(100%,100%,100%);fill-opacity:1;" d="M 40.84375 22.132812 C 41.511719 22.25 42 22.828125 42 23.507812 L 42 26.492188 C 42 27.171875 41.511719 27.75 40.84375 27.863281 L 38.066406 28.34375 C 37.746094 29.601562 37.25 30.785156 36.605469 31.875 L 38.230469 34.175781 C 38.621094 34.730469 38.558594 35.484375 38.078125 35.964844 L 35.964844 38.074219 C 35.429688 38.59375 34.6875 38.597656 34.175781 38.226562 L 31.875 36.601562 C 30.789062 37.246094 29.601562 37.742188 28.34375 38.0625 L 27.867188 40.839844 C 27.75 41.511719 27.171875 42 26.492188 42 L 23.507812 42 C 22.828125 42 22.25 41.511719 22.132812 40.84375 L 21.65625 38.066406 C 20.398438 37.746094 19.214844 37.25 18.125 36.605469 L 15.824219 38.230469 C 15.289062 38.609375 14.539062 38.574219 14.035156 38.078125 L 11.925781 35.964844 C 11.445312 35.484375 11.378906 34.730469 11.769531 34.175781 L 13.398438 31.875 C 12.75 30.789062 12.257812 29.601562 11.933594 28.34375 L 9.15625 27.867188 C 8.488281 27.75 8 27.171875 8 26.492188 L 8 23.507812 C 8 22.828125 8.488281 22.25 9.15625 22.132812 L 11.933594 21.65625 C 12.253906 20.398438 12.75 19.214844 13.394531 18.125 L 11.769531 15.824219 C 11.378906 15.269531 11.441406 14.515625 11.921875 14.035156 L 14.035156 11.925781 C 14.628906 11.34375 15.402344 11.46875 15.824219 11.769531 L 18.125 13.398438 C 19.210938 12.75 20.398438 12.257812 21.65625 11.933594 L 22.132812 9.15625 C 22.25 8.488281 22.828125 8 23.507812 8 L 26.492188 8 C 27.171875 8 27.75 8.488281 27.867188 9.15625 L 28.34375 11.933594 C 29.601562 12.253906 30.785156 12.75 31.875 13.394531 L 34.175781 11.769531 C 34.792969 11.355469 35.527344 11.488281 35.964844 11.921875 L 38.074219 14.035156 C 38.554688 14.515625 38.621094 15.269531 38.230469 15.824219 L 36.601562 18.125 C 37.25 19.210938 37.742188 20.398438 38.066406 21.65625 Z M 25 31.953125 C 28.839844 31.953125 31.953125 28.839844 31.953125 25 C 31.953125 21.160156 28.839844 18.046875 25 18.046875 C 21.160156 18.046875 18.046875 21.160156 18.046875 25 C 18.046875 28.839844 21.160156 31.953125 25 31.953125 Z M 25 31.953125 "/>
</g>
</svg>
